<?xml version="1.0" encoding="utf-8"?>
<!-- Generator: Adobe Illustrator 16.0.4, SVG Export Plug-In . SVG Version: 6.00 Build 0)  -->
<!DOCTYPE svg PUBLIC "-//W3C//DTD SVG 1.1//EN" "http://www.w3.org/Graphics/SVG/1.1/DTD/svg11.dtd">
<svg version="1.1" id="Ebene_1" xmlns="http://www.w3.org/2000/svg" xmlns:xlink="http://www.w3.org/1999/xlink" x="0px" y="0px"
	 width="100px" height="100px" viewBox="0 0 100 100" enable-background="new 0 0 100 100" xml:space="preserve">
<g>
	<path fill="#AAB1B5" d="M50,100c27.613,0,49.999-22.386,49.999-50S77.613,0,50,0C22.386,0,0.001,22.386,0.001,50S22.386,100,50,100
		z M49.679,15.666c4.596,0,7.721,3.493,7.721,7.998c0,4.781-3.401,8.089-7.721,8.089c-4.229,0-7.631-3.309-7.631-8.089
		C42.048,18.976,45.45,15.666,49.679,15.666z M37.544,80.475c5.424,0,5.884-0.826,5.884-7.629V51.792
		c0-6.802-0.367-7.262-5.884-7.262v-4.696c5.608-0.369,11.583-0.819,17.927-3.484l1.563,0.827v35.76
		c0,6.711,0.551,7.539,5.423,7.539v3.858H37.544V80.475z"/>
</g>
</svg>
